<mxfile host="app.diagrams.net" modified="2023-10-13T16:11:41.221Z" agent="Mozilla/5.0 (Windows NT 10.0; Win64; x64) AppleWebKit/537.36 (KHTML, like Gecko) Chrome/117.0.0.0 Safari/537.36" etag="sur56zhqv-kpA5x1HRrD" version="22.0.4" type="github">
  <diagram name="PÃ gina-1" id="jwsh2uQWg2K7kbO6ysq4">
    <mxGraphModel dx="1077" dy="610" grid="1" gridSize="10" guides="1" tooltips="1" connect="1" arrows="1" fold="1" page="1" pageScale="1" pageWidth="827" pageHeight="1169" math="0" shadow="0">
      <root>
        <mxCell id="0" />
        <mxCell id="1" parent="0" />
        <mxCell id="w5u-BCPX9tSiq1V_wm3K-1" value="Pieza" style="swimlane;fontStyle=0;childLayout=stackLayout;horizontal=1;startSize=26;horizontalStack=0;resizeParent=1;resizeParentMax=0;resizeLast=0;collapsible=1;marginBottom=0;align=center;fontSize=14;" vertex="1" parent="1">
          <mxGeometry x="80" y="190" width="160" height="146" as="geometry" />
        </mxCell>
        <mxCell id="w5u-BCPX9tSiq1V_wm3K-5" value="" style="shape=table;startSize=0;container=1;collapsible=1;childLayout=tableLayout;fixedRows=1;rowLines=0;fontStyle=0;align=center;resizeLast=1;strokeColor=none;fillColor=none;collapsible=0;" vertex="1" parent="w5u-BCPX9tSiq1V_wm3K-1">
          <mxGeometry y="26" width="160" height="30" as="geometry" />
        </mxCell>
        <mxCell id="w5u-BCPX9tSiq1V_wm3K-6" value="" style="shape=tableRow;horizontal=0;startSize=0;swimlaneHead=0;swimlaneBody=0;fillColor=none;collapsible=0;dropTarget=0;points=[[0,0.5],[1,0.5]];portConstraint=eastwest;top=0;left=0;right=0;bottom=1;" vertex="1" parent="w5u-BCPX9tSiq1V_wm3K-5">
          <mxGeometry width="160" height="30" as="geometry" />
        </mxCell>
        <mxCell id="w5u-BCPX9tSiq1V_wm3K-7" value="PK" style="shape=partialRectangle;connectable=0;fillColor=none;top=0;left=0;bottom=0;right=0;fontStyle=1;overflow=hidden;whiteSpace=wrap;html=1;" vertex="1" parent="w5u-BCPX9tSiq1V_wm3K-6">
          <mxGeometry width="30" height="30" as="geometry">
            <mxRectangle width="30" height="30" as="alternateBounds" />
          </mxGeometry>
        </mxCell>
        <mxCell id="w5u-BCPX9tSiq1V_wm3K-8" value="id_pieza" style="shape=partialRectangle;connectable=0;fillColor=none;top=0;left=0;bottom=0;right=0;align=left;spacingLeft=6;fontStyle=5;overflow=hidden;whiteSpace=wrap;html=1;" vertex="1" parent="w5u-BCPX9tSiq1V_wm3K-6">
          <mxGeometry x="30" width="130" height="30" as="geometry">
            <mxRectangle width="130" height="30" as="alternateBounds" />
          </mxGeometry>
        </mxCell>
        <mxCell id="w5u-BCPX9tSiq1V_wm3K-3" value="descripcion" style="text;strokeColor=none;fillColor=none;spacingLeft=4;spacingRight=4;overflow=hidden;rotatable=0;points=[[0,0.5],[1,0.5]];portConstraint=eastwest;fontSize=12;whiteSpace=wrap;html=1;" vertex="1" parent="w5u-BCPX9tSiq1V_wm3K-1">
          <mxGeometry y="56" width="160" height="30" as="geometry" />
        </mxCell>
        <mxCell id="w5u-BCPX9tSiq1V_wm3K-4" value="precio" style="text;strokeColor=none;fillColor=none;spacingLeft=4;spacingRight=4;overflow=hidden;rotatable=0;points=[[0,0.5],[1,0.5]];portConstraint=eastwest;fontSize=12;whiteSpace=wrap;html=1;" vertex="1" parent="w5u-BCPX9tSiq1V_wm3K-1">
          <mxGeometry y="86" width="160" height="30" as="geometry" />
        </mxCell>
        <mxCell id="w5u-BCPX9tSiq1V_wm3K-9" value="precio" style="text;strokeColor=none;fillColor=none;spacingLeft=4;spacingRight=4;overflow=hidden;rotatable=0;points=[[0,0.5],[1,0.5]];portConstraint=eastwest;fontSize=12;whiteSpace=wrap;html=1;" vertex="1" parent="w5u-BCPX9tSiq1V_wm3K-1">
          <mxGeometry y="116" width="160" height="30" as="geometry" />
        </mxCell>
        <mxCell id="w5u-BCPX9tSiq1V_wm3K-10" value="compuesto" style="shape=rhombus;perimeter=rhombusPerimeter;whiteSpace=wrap;html=1;align=center;" vertex="1" parent="1">
          <mxGeometry x="100" y="420" width="120" height="60" as="geometry" />
        </mxCell>
        <mxCell id="w5u-BCPX9tSiq1V_wm3K-11" value="" style="endArrow=none;html=1;rounded=0;entryX=1;entryY=0.5;entryDx=0;entryDy=0;" edge="1" parent="1" target="w5u-BCPX9tSiq1V_wm3K-10">
          <mxGeometry relative="1" as="geometry">
            <mxPoint x="220" y="336" as="sourcePoint" />
            <mxPoint x="220" y="446" as="targetPoint" />
          </mxGeometry>
        </mxCell>
        <mxCell id="w5u-BCPX9tSiq1V_wm3K-12" value="" style="endArrow=none;html=1;rounded=0;entryX=1;entryY=0.5;entryDx=0;entryDy=0;exitX=0.123;exitY=1;exitDx=0;exitDy=0;exitPerimeter=0;" edge="1" parent="1" source="w5u-BCPX9tSiq1V_wm3K-9">
          <mxGeometry relative="1" as="geometry">
            <mxPoint x="99" y="340" as="sourcePoint" />
            <mxPoint x="99" y="450" as="targetPoint" />
          </mxGeometry>
        </mxCell>
        <mxCell id="w5u-BCPX9tSiq1V_wm3K-13" value="Almacen" style="swimlane;fontStyle=0;childLayout=stackLayout;horizontal=1;startSize=26;horizontalStack=0;resizeParent=1;resizeParentMax=0;resizeLast=0;collapsible=1;marginBottom=0;align=center;fontSize=14;" vertex="1" parent="1">
          <mxGeometry x="490" y="190" width="160" height="146" as="geometry" />
        </mxCell>
        <mxCell id="w5u-BCPX9tSiq1V_wm3K-14" value="" style="shape=table;startSize=0;container=1;collapsible=1;childLayout=tableLayout;fixedRows=1;rowLines=0;fontStyle=0;align=center;resizeLast=1;strokeColor=none;fillColor=none;collapsible=0;" vertex="1" parent="w5u-BCPX9tSiq1V_wm3K-13">
          <mxGeometry y="26" width="160" height="30" as="geometry" />
        </mxCell>
        <mxCell id="w5u-BCPX9tSiq1V_wm3K-15" value="" style="shape=tableRow;horizontal=0;startSize=0;swimlaneHead=0;swimlaneBody=0;fillColor=none;collapsible=0;dropTarget=0;points=[[0,0.5],[1,0.5]];portConstraint=eastwest;top=0;left=0;right=0;bottom=1;" vertex="1" parent="w5u-BCPX9tSiq1V_wm3K-14">
          <mxGeometry width="160" height="30" as="geometry" />
        </mxCell>
        <mxCell id="w5u-BCPX9tSiq1V_wm3K-16" value="PK" style="shape=partialRectangle;connectable=0;fillColor=none;top=0;left=0;bottom=0;right=0;fontStyle=1;overflow=hidden;whiteSpace=wrap;html=1;" vertex="1" parent="w5u-BCPX9tSiq1V_wm3K-15">
          <mxGeometry width="30" height="30" as="geometry">
            <mxRectangle width="30" height="30" as="alternateBounds" />
          </mxGeometry>
        </mxCell>
        <mxCell id="w5u-BCPX9tSiq1V_wm3K-17" value="num_almacen" style="shape=partialRectangle;connectable=0;fillColor=none;top=0;left=0;bottom=0;right=0;align=left;spacingLeft=6;fontStyle=5;overflow=hidden;whiteSpace=wrap;html=1;" vertex="1" parent="w5u-BCPX9tSiq1V_wm3K-15">
          <mxGeometry x="30" width="130" height="30" as="geometry">
            <mxRectangle width="130" height="30" as="alternateBounds" />
          </mxGeometry>
        </mxCell>
        <mxCell id="w5u-BCPX9tSiq1V_wm3K-18" value="descripcion" style="text;strokeColor=none;fillColor=none;spacingLeft=4;spacingRight=4;overflow=hidden;rotatable=0;points=[[0,0.5],[1,0.5]];portConstraint=eastwest;fontSize=12;whiteSpace=wrap;html=1;" vertex="1" parent="w5u-BCPX9tSiq1V_wm3K-13">
          <mxGeometry y="56" width="160" height="30" as="geometry" />
        </mxCell>
        <mxCell id="w5u-BCPX9tSiq1V_wm3K-19" value="direccion" style="text;strokeColor=none;fillColor=none;spacingLeft=4;spacingRight=4;overflow=hidden;rotatable=0;points=[[0,0.5],[1,0.5]];portConstraint=eastwest;fontSize=12;whiteSpace=wrap;html=1;" vertex="1" parent="w5u-BCPX9tSiq1V_wm3K-13">
          <mxGeometry y="86" width="160" height="30" as="geometry" />
        </mxCell>
        <mxCell id="w5u-BCPX9tSiq1V_wm3K-20" value="id_estanteria" style="text;strokeColor=none;fillColor=none;spacingLeft=4;spacingRight=4;overflow=hidden;rotatable=0;points=[[0,0.5],[1,0.5]];portConstraint=eastwest;fontSize=12;whiteSpace=wrap;html=1;" vertex="1" parent="w5u-BCPX9tSiq1V_wm3K-13">
          <mxGeometry y="116" width="160" height="30" as="geometry" />
        </mxCell>
        <mxCell id="w5u-BCPX9tSiq1V_wm3K-21" value="Estanteria" style="swimlane;fontStyle=0;childLayout=stackLayout;horizontal=1;startSize=26;horizontalStack=0;resizeParent=1;resizeParentMax=0;resizeLast=0;collapsible=1;marginBottom=0;align=center;fontSize=14;" vertex="1" parent="1">
          <mxGeometry x="490" y="499" width="160" height="86" as="geometry" />
        </mxCell>
        <mxCell id="w5u-BCPX9tSiq1V_wm3K-22" value="" style="shape=table;startSize=0;container=1;collapsible=1;childLayout=tableLayout;fixedRows=1;rowLines=0;fontStyle=0;align=center;resizeLast=1;strokeColor=none;fillColor=none;collapsible=0;" vertex="1" parent="w5u-BCPX9tSiq1V_wm3K-21">
          <mxGeometry y="26" width="160" height="30" as="geometry" />
        </mxCell>
        <mxCell id="w5u-BCPX9tSiq1V_wm3K-23" value="" style="shape=tableRow;horizontal=0;startSize=0;swimlaneHead=0;swimlaneBody=0;fillColor=none;collapsible=0;dropTarget=0;points=[[0,0.5],[1,0.5]];portConstraint=eastwest;top=0;left=0;right=0;bottom=1;" vertex="1" parent="w5u-BCPX9tSiq1V_wm3K-22">
          <mxGeometry width="160" height="30" as="geometry" />
        </mxCell>
        <mxCell id="w5u-BCPX9tSiq1V_wm3K-24" value="PK" style="shape=partialRectangle;connectable=0;fillColor=none;top=0;left=0;bottom=0;right=0;fontStyle=1;overflow=hidden;whiteSpace=wrap;html=1;" vertex="1" parent="w5u-BCPX9tSiq1V_wm3K-23">
          <mxGeometry width="30" height="30" as="geometry">
            <mxRectangle width="30" height="30" as="alternateBounds" />
          </mxGeometry>
        </mxCell>
        <mxCell id="w5u-BCPX9tSiq1V_wm3K-25" value="id_estanteria" style="shape=partialRectangle;connectable=0;fillColor=none;top=0;left=0;bottom=0;right=0;align=left;spacingLeft=6;fontStyle=5;overflow=hidden;whiteSpace=wrap;html=1;" vertex="1" parent="w5u-BCPX9tSiq1V_wm3K-23">
          <mxGeometry x="30" width="130" height="30" as="geometry">
            <mxRectangle width="130" height="30" as="alternateBounds" />
          </mxGeometry>
        </mxCell>
        <mxCell id="w5u-BCPX9tSiq1V_wm3K-26" value="cantidad_piezas" style="text;strokeColor=none;fillColor=none;spacingLeft=4;spacingRight=4;overflow=hidden;rotatable=0;points=[[0,0.5],[1,0.5]];portConstraint=eastwest;fontSize=12;whiteSpace=wrap;html=1;" vertex="1" parent="w5u-BCPX9tSiq1V_wm3K-21">
          <mxGeometry y="56" width="160" height="30" as="geometry" />
        </mxCell>
        <mxCell id="w5u-BCPX9tSiq1V_wm3K-29" value="Guarda" style="shape=rhombus;perimeter=rhombusPerimeter;whiteSpace=wrap;html=1;align=center;" vertex="1" parent="1">
          <mxGeometry x="310" y="233" width="120" height="60" as="geometry" />
        </mxCell>
        <mxCell id="w5u-BCPX9tSiq1V_wm3K-30" value="Contiene" style="shape=rhombus;perimeter=rhombusPerimeter;whiteSpace=wrap;html=1;align=center;" vertex="1" parent="1">
          <mxGeometry x="510" y="380" width="120" height="60" as="geometry" />
        </mxCell>
        <mxCell id="w5u-BCPX9tSiq1V_wm3K-31" value="" style="endArrow=none;html=1;rounded=0;entryX=0;entryY=0.5;entryDx=0;entryDy=0;exitX=0.998;exitY=0.559;exitDx=0;exitDy=0;exitPerimeter=0;" edge="1" parent="1" source="w5u-BCPX9tSiq1V_wm3K-3" target="w5u-BCPX9tSiq1V_wm3K-29">
          <mxGeometry relative="1" as="geometry">
            <mxPoint x="240" y="290" as="sourcePoint" />
            <mxPoint x="330" y="290" as="targetPoint" />
          </mxGeometry>
        </mxCell>
        <mxCell id="w5u-BCPX9tSiq1V_wm3K-32" value="" style="endArrow=none;html=1;rounded=0;exitX=0.5;exitY=0;exitDx=0;exitDy=0;entryX=0.5;entryY=1;entryDx=0;entryDy=0;" edge="1" parent="1" source="w5u-BCPX9tSiq1V_wm3K-30" target="w5u-BCPX9tSiq1V_wm3K-13">
          <mxGeometry relative="1" as="geometry">
            <mxPoint x="340" y="460" as="sourcePoint" />
            <mxPoint x="430" y="460" as="targetPoint" />
          </mxGeometry>
        </mxCell>
        <mxCell id="w5u-BCPX9tSiq1V_wm3K-33" value="" style="endArrow=none;html=1;rounded=0;entryX=-0.001;entryY=0.553;entryDx=0;entryDy=0;exitX=1;exitY=0.5;exitDx=0;exitDy=0;entryPerimeter=0;" edge="1" parent="1" source="w5u-BCPX9tSiq1V_wm3K-29" target="w5u-BCPX9tSiq1V_wm3K-18">
          <mxGeometry relative="1" as="geometry">
            <mxPoint x="400" y="293" as="sourcePoint" />
            <mxPoint x="470" y="293" as="targetPoint" />
          </mxGeometry>
        </mxCell>
        <mxCell id="w5u-BCPX9tSiq1V_wm3K-34" value="" style="endArrow=none;html=1;rounded=0;exitX=0.5;exitY=0;exitDx=0;exitDy=0;entryX=0.5;entryY=1;entryDx=0;entryDy=0;" edge="1" parent="1" source="w5u-BCPX9tSiq1V_wm3K-21" target="w5u-BCPX9tSiq1V_wm3K-30">
          <mxGeometry relative="1" as="geometry">
            <mxPoint x="550" y="484" as="sourcePoint" />
            <mxPoint x="550" y="440" as="targetPoint" />
          </mxGeometry>
        </mxCell>
        <mxCell id="w5u-BCPX9tSiq1V_wm3K-39" value="1,n" style="text;html=1;strokeColor=none;fillColor=none;align=center;verticalAlign=middle;whiteSpace=wrap;rounded=0;" vertex="1" parent="1">
          <mxGeometry x="80" y="340" width="60" height="30" as="geometry" />
        </mxCell>
        <mxCell id="w5u-BCPX9tSiq1V_wm3K-40" value="1,n" style="text;html=1;strokeColor=none;fillColor=none;align=center;verticalAlign=middle;whiteSpace=wrap;rounded=0;" vertex="1" parent="1">
          <mxGeometry x="180" y="340" width="60" height="30" as="geometry" />
        </mxCell>
        <mxCell id="w5u-BCPX9tSiq1V_wm3K-41" value="N:M" style="text;html=1;strokeColor=none;fillColor=none;align=center;verticalAlign=middle;whiteSpace=wrap;rounded=0;" vertex="1" parent="1">
          <mxGeometry x="130" y="395" width="60" height="30" as="geometry" />
        </mxCell>
        <mxCell id="w5u-BCPX9tSiq1V_wm3K-42" value="0,n" style="text;html=1;strokeColor=none;fillColor=none;align=center;verticalAlign=middle;whiteSpace=wrap;rounded=0;" vertex="1" parent="1">
          <mxGeometry x="230" y="240" width="60" height="30" as="geometry" />
        </mxCell>
        <mxCell id="w5u-BCPX9tSiq1V_wm3K-43" value="1,n" style="text;html=1;strokeColor=none;fillColor=none;align=center;verticalAlign=middle;whiteSpace=wrap;rounded=0;" vertex="1" parent="1">
          <mxGeometry x="440" y="240" width="60" height="30" as="geometry" />
        </mxCell>
        <mxCell id="w5u-BCPX9tSiq1V_wm3K-44" value="1,n" style="text;html=1;strokeColor=none;fillColor=none;align=center;verticalAlign=middle;whiteSpace=wrap;rounded=0;" vertex="1" parent="1">
          <mxGeometry x="530" y="336" width="60" height="30" as="geometry" />
        </mxCell>
        <mxCell id="w5u-BCPX9tSiq1V_wm3K-45" value="1,n" style="text;html=1;strokeColor=none;fillColor=none;align=center;verticalAlign=middle;whiteSpace=wrap;rounded=0;" vertex="1" parent="1">
          <mxGeometry x="530" y="469" width="60" height="30" as="geometry" />
        </mxCell>
        <mxCell id="w5u-BCPX9tSiq1V_wm3K-46" value="N:M" style="text;html=1;strokeColor=none;fillColor=none;align=center;verticalAlign=middle;whiteSpace=wrap;rounded=0;" vertex="1" parent="1">
          <mxGeometry x="470" y="395" width="60" height="30" as="geometry" />
        </mxCell>
        <mxCell id="w5u-BCPX9tSiq1V_wm3K-47" value="N:M" style="text;html=1;strokeColor=none;fillColor=none;align=center;verticalAlign=middle;whiteSpace=wrap;rounded=0;" vertex="1" parent="1">
          <mxGeometry x="340" y="290" width="60" height="30" as="geometry" />
        </mxCell>
      </root>
    </mxGraphModel>
  </diagram>
</mxfile>
